<?xml version="1.0" encoding="UTF-8" standalone="no"?>
<svg
   id="Layer_5"
   version="1.1"
   viewBox="0 0 719.75989 75.003998"
   sodipodi:docname="logo_tagline.svg"
   inkscape:version="1.4.3 (0d15f75042, 2025-12-25)"
   xml:space="preserve"
   width="719.75989"
   height="75.003998"
   xmlns:inkscape="http://www.inkscape.org/namespaces/inkscape"
   xmlns:sodipodi="http://sodipodi.sourceforge.net/DTD/sodipodi-0.dtd"
   xmlns="http://www.w3.org/2000/svg"
   xmlns:svg="http://www.w3.org/2000/svg"><sodipodi:namedview
     id="namedview6"
     pagecolor="#ffffff"
     bordercolor="#111111"
     borderopacity="1"
     inkscape:showpageshadow="0"
     inkscape:pageopacity="0"
     inkscape:pagecheckerboard="1"
     inkscape:deskcolor="#d1d1d1"
     inkscape:zoom="1.3945717"
     inkscape:cx="258.86084"
     inkscape:cy="-19.719316"
     inkscape:window-width="2028"
     inkscape:window-height="1094"
     inkscape:window-x="0"
     inkscape:window-y="0"
     inkscape:window-maximized="1"
     inkscape:current-layer="Layer_5" /><!-- Generator: Adobe Illustrator 30.0.0, SVG Export Plug-In . SVG Version: 2.1.1 Build 123)  --><defs
     id="defs1"><style
       id="style1">
      .st0 {
        stroke: #2c5366;
        stroke-width: 6px;
      }

      .st0, .st1 {
        fill: none;
        stroke-linecap: round;
        stroke-miterlimit: 10;
      }

      .st2 {
        fill: #910000;
      }

      .st3 {
        font-size: 33px;
      }

      .st3, .st4 {
        fill: #213e4d;
        font-family: HelveticaNeue-Bold, 'Helvetica Neue';
        font-weight: 700;
      }

      .st5 {
        fill: #89bad1;
      }

      .st4 {
        font-size: 40px;
      }

      .st1 {
        stroke: #000;
        stroke-width: 5px;
      }
    </style></defs><path
     style="font-weight:bold;font-size:33px;font-family:'Helvetica Neue';-inkscape-font-specification:'Helvetica Neue Bold';fill:#ffffff"
     d="m 182.529,50.881 h -5.313 l -8.943,23.529 h 5.28 l 1.914,-5.247 h 8.745 l 1.848,5.247 h 5.412 z m 0.429,14.52 h -6.237 l 3.135,-8.745 z m 25.509,-14.487 h -19.305 v 4.389 h 7.062 V 74.41 h 5.181 V 55.303 h 7.062 z m 31.878,0 h -5.148 v 14.058 c 0,1.914 -0.363,3.333 -1.023,4.257 -0.66,0.924 -1.914,1.386 -3.762,1.386 -1.914,0 -3.234,-0.462 -3.96,-1.386 -0.726,-0.924 -1.089,-2.343 -1.089,-4.257 V 50.914 h -5.148 v 14.058 c 0,3.366 0.792,5.874 2.442,7.491 1.65,1.617 4.191,2.409 7.689,2.409 3.432,0 5.94,-0.792 7.557,-2.376 1.617,-1.584 2.442,-4.092 2.442,-7.458 z m 4.45497,23.496 h 4.983 V 58.636 l 9.735,15.774 h 5.148 V 50.914 h -4.95 v 15.741 l -9.669,-15.741 h -5.247 z m 45.44097,-9.075 h -5.115 c -0.462,3.531 -2.244,5.28 -5.379,5.28 -1.914,0 -3.399,-0.693 -4.521,-2.145 -1.122,-1.452 -1.683,-3.366 -1.683,-5.808 0,-1.386 0.198,-2.64 0.594,-3.828 0.396,-1.155 1.056,-2.145 2.046,-2.937 0.99,-0.792 2.178,-1.188 3.63,-1.188 1.386,0 2.508,0.33 3.432,1.056 0.924,0.726 1.518,1.716 1.782,3.036 h 5.049 c -0.198,-2.442 -1.254,-4.455 -3.135,-6.039 -1.914,-1.584 -4.257,-2.376 -7.029,-2.376 -3.498,0 -6.303,1.155 -8.415,3.498 -2.112,2.31 -3.135,5.247 -3.135,8.778 0,3.696 1.023,6.699 3.102,8.943 2.079,2.244 4.818,3.399 8.25,3.399 3.135,0 5.61,-0.891 7.425,-2.607 1.782,-1.749 2.838,-4.092 3.102,-7.062 z m 33.62697,0 h -5.115 c -0.462,3.531 -2.244,5.28 -5.379,5.28 -1.914,0 -3.399,-0.693 -4.521,-2.145 -1.122,-1.452 -1.683,-3.366 -1.683,-5.808 0,-1.386 0.198,-2.64 0.594,-3.828 0.396,-1.155 1.056,-2.145 2.046,-2.937 0.99,-0.792 2.178,-1.188 3.63,-1.188 1.386,0 2.508,0.33 3.432,1.056 0.924,0.726 1.518,1.716 1.782,3.036 h 5.049 c -0.198,-2.442 -1.254,-4.455 -3.135,-6.039 -1.914,-1.584 -4.257,-2.376 -7.029,-2.376 -3.498,0 -6.303,1.155 -8.415,3.498 -2.112,2.31 -3.135,5.247 -3.135,8.778 0,3.696 1.023,6.699 3.102,8.943 2.079,2.244 4.818,3.399 8.25,3.399 3.135,0 5.61,-0.891 7.425,-2.607 1.782,-1.749 2.838,-4.092 3.102,-7.062 z M 347.2319,50.914 h -5.148 v 8.844 h -9.603 v -8.844 h -5.148 V 74.41 h 5.148 V 64.279 h 9.603 V 74.41 h 5.148 z m 16.23597,-0.033 h -5.313 l -8.943,23.529 h 5.28 l 1.914,-5.247 h 8.745 l 1.848,5.247 h 5.412 z m 0.429,14.52 h -6.237 l 3.135,-8.745 z M 374.42385,50.914 V 74.41 h 5.115 v -8.448 h 5.28 c 2.475,0 4.488,-0.627 6.039,-1.881 1.518,-1.254 2.31,-3.135 2.31,-5.61 0,-2.508 -0.792,-4.389 -2.343,-5.643 -1.551,-1.254 -3.63,-1.914 -6.27,-1.914 z m 5.115,4.224 h 4.62 c 2.64,0 3.993,1.155 3.993,3.399 0,2.244 -1.353,3.366 -4.026,3.366 h -4.587 z m 34.48499,-4.224 h -17.622 V 74.41 h 17.853 v -4.323 h -12.738 v -5.775 h 11.484 v -4.059 h -11.484 v -5.115 h 12.507 z m 20.39403,19.074 h -11.484 V 50.914 h -5.148 V 74.41 h 16.632 z m 32.01001,-19.074 h -5.148 v 8.844 h -9.603 v -8.844 h -5.148 V 74.41 h 5.148 V 64.279 h 9.603 V 74.41 h 5.148 z m 9.73498,0 h -5.181 V 74.41 h 5.181 z m 21.18598,19.074 h -11.484 V 50.914 h -5.148 V 74.41 h 16.632 z m 19.56903,0 h -11.484 V 50.914 h -5.148 V 74.41 h 16.632 z"
     id="text5"
     class="st3"
     aria-label="AT UNC CHAPEL HILL" /><path
     d="M 0,0.68 V 29.16 H 6.2 V 18.92 h 6.4 c 3,0 5.44,-0.76 7.32,-2.28 1.84,-1.52 2.8,-3.8 2.8,-6.8 C 22.72,6.8 21.76,4.52 19.88,3 18,1.48 15.48,0.68 12.28,0.68 Z M 6.2,5.8 h 5.6 c 3.2,0 4.84,1.4 4.84,4.12 C 16.64,12.64 15,14 11.76,14 H 6.2 Z M 50.879993,0.68 h -6.24 v 17.04 c 0,2.32 -0.44,4.04 -1.24,5.16 -0.8,1.12 -2.32,1.68 -4.56,1.68 -2.32,0 -3.92,-0.56 -4.8,-1.68 -0.88,-1.12 -1.32,-2.84 -1.32,-5.16 V 0.68 h -6.24 v 17.04 c 0,4.08 0.96,7.12 2.96,9.08 2,1.96 5.08,2.92 9.32,2.92 4.16,0 7.2,-0.96 9.16,-2.88 1.96,-1.92 2.96,-4.96 2.96,-9.04 z m 5.359969,0 v 28.48 h 14.24 c 2.8,0 5.08,-0.72 6.92,-2.2 1.8,-1.48 2.72,-3.56 2.72,-6.28 0,-3.64 -1.76,-5.96 -5.2,-6.96 1.2,-0.52 2.12,-1.28 2.84,-2.32 0.68,-1.04 1.04,-2.2 1.04,-3.56 0,-2.4 -0.88,-4.16 -2.56,-5.36 -1.68,-1.2 -3.88,-1.8 -6.52,-1.8 z m 6.08,4.84 h 5.68 c 1.44,0 2.56,0.24 3.44,0.72 0.84,0.48 1.28,1.36 1.28,2.68 0,2.2 -1.6,3.32 -4.72,3.32 h -5.68 z m 0,10.96 h 5.96 c 1.72,0 3.08,0.24 4.08,0.76 1,0.52 1.52,1.56 1.52,3.12 0,1.52 -0.48,2.52 -1.44,3.08 -0.96,0.52 -2.24,0.8 -3.88,0.8 h -6.28 z m 42.280018,7.32 h -13.92 V 0.68 h -6.24 v 28.48 h 20.16 z M 114.44,0.68 h -6.28 v 28.48 h 6.28 z m 30.96,17.48 h -6.2 c -0.56,4.28 -2.72,6.4 -6.52,6.4 -2.32,0 -4.12,-0.84 -5.48,-2.6 -1.36,-1.76 -2.04,-4.08 -2.04,-7.04 0,-1.68 0.24,-3.2 0.72,-4.64 0.48,-1.4 1.28,-2.6 2.48,-3.56 1.2,-0.96 2.64,-1.44 4.4,-1.44 1.68,0 3.04,0.4 4.16,1.28 1.12,0.88 1.84,2.08 2.16,3.68 h 6.12 c -0.24,-2.96 -1.52,-5.4 -3.8,-7.32 -2.32,-1.92 -5.16,-2.88 -8.52,-2.88 -4.24,0 -7.64,1.4 -10.2,4.24 -2.56,2.8 -3.8,6.36 -3.8,10.64 0,4.48 1.24,8.12 3.76,10.84 2.52,2.72 5.84,4.12 10,4.12 3.8,0 6.8,-1.08 9,-3.16 2.16,-2.12 3.44,-4.96 3.76,-8.56 z M 173.59996,0 c -4.28,0 -7.72,1.4 -10.28,4.12 -2.56,2.72 -3.84,6.36 -3.84,10.84 0,4.48 1.28,8.08 3.88,10.8 2.56,2.72 5.96,4.08 10.2,4.08 4.16,0 7.56,-1.36 10.12,-4.08 2.56,-2.72 3.88,-6.32 3.88,-10.8 0,-4.44 -1.32,-8.04 -3.88,-10.8 -2.56,-2.76 -5.92,-4.16 -10.08,-4.16 z m -0.08,5.12 c 2.36,0 4.24,0.88 5.64,2.64 1.36,1.76 2.08,4.12 2.08,7.12 0,3.04 -0.68,5.44 -2.04,7.2 -1.36,1.76 -3.24,2.64 -5.6,2.64 -2.44,-0.04 -4.36,-0.92 -5.76,-2.64 -1.36,-1.76 -2.08,-4.16 -2.08,-7.2 0,-2.96 0.72,-5.32 2.12,-7.08 1.4,-1.76 3.28,-2.68 5.64,-2.68 z m 18.36,-4.44 v 28.48 h 6.2 V 18.92 h 6.4 c 3,0 5.44,-0.76 7.32,-2.28 1.84,-1.52 2.8,-3.8 2.8,-6.8 0,-3.04 -0.96,-5.32 -2.84,-6.84 -1.88,-1.52 -4.4,-2.32 -7.6,-2.32 z m 6.2,5.12 h 5.6 c 3.2,0 4.84,1.4 4.84,4.12 0,2.72 -1.64,4.08 -4.88,4.08 h -5.56 z m 26.71999,-5.12 h -6.28 v 28.48 h 6.28 z m 5.52,28.48 h 6.04 V 10.04 l 11.8,19.12 h 6.24 V 0.68 h -6 v 19.08 l -11.72,-19.08 h -6.36 z M 266.23994,0.68 h -6.28 v 28.48 h 6.28 z M 284.63993,0 c -4.28,0 -7.72,1.4 -10.28,4.12 -2.56,2.72 -3.84,6.36 -3.84,10.84 0,4.48 1.28,8.08 3.88,10.8 2.56,2.72 5.96,4.08 10.2,4.08 4.16,0 7.56,-1.36 10.12,-4.08 2.56,-2.72 3.88,-6.32 3.88,-10.8 0,-4.44 -1.32,-8.04 -3.88,-10.8 -2.56,-2.76 -5.92,-4.16 -10.08,-4.16 z m -0.08,5.12 c 2.36,0 4.24,0.88 5.64,2.64 1.36,1.76 2.08,4.12 2.08,7.12 0,3.04 -0.68,5.44 -2.04,7.2 -1.36,1.76 -3.24,2.64 -5.6,2.64 -2.44,-0.04 -4.36,-0.92 -5.76,-2.64 -1.36,-1.76 -2.08,-4.16 -2.08,-7.2 0,-2.96 0.72,-5.32 2.12,-7.08 1.4,-1.76 3.28,-2.68 5.64,-2.68 z m 18.31999,24.04 h 6.04 V 10.04 l 11.8,19.12 h 6.24 V 0.68 h -6 v 19.08 l -11.72,-19.08 h -6.36 z M 343.87987,0.68 v 28.48 h 6.2 V 18 h 5.56 c 2,0 3.36,0.4 4.16,1.16 0.8,0.8 1.28,2.16 1.52,4.16 0,0.12 0.04,0.68 0.12,1.72 0.08,1.04 0.16,1.88 0.28,2.52 0.08,0.64 0.24,1.2 0.48,1.64 h 6.48 c -0.24,-0.2 -0.4,-0.48 -0.56,-0.88 -0.16,-0.4 -0.28,-0.92 -0.36,-1.48 -0.08,-0.6 -0.16,-1.12 -0.2,-1.52 -0.08,-0.4 -0.12,-0.96 -0.16,-1.64 -0.08,-0.72 -0.08,-1.12 -0.08,-1.24 -0.36,-3.92 -1.76,-6.16 -4.2,-6.64 1.4,-0.56 2.52,-1.44 3.32,-2.68 0.8,-1.24 1.2,-2.68 1.2,-4.32 0,-2.72 -0.92,-4.76 -2.68,-6.08 -1.8,-1.36 -4.12,-2 -6.92,-2 z m 6.2,4.96 h 6.2 c 1.6,0 2.84,0.24 3.8,0.8 0.96,0.52 1.44,1.52 1.44,3.04 0,1.6 -0.52,2.64 -1.48,3.2 -0.96,0.56 -2.32,0.84 -4.04,0.84 h -5.92 z m 43.80001,-4.96 h -21.36 v 28.48 h 21.64 v -5.24 h -15.44 v -7 h 13.92 V 12 h -13.92 V 5.8 h 15.16 z m 25.64004,8.48 c -0.08,-3.04 -1.12,-5.28 -3.12,-6.8 -2.04,-1.52 -4.64,-2.28 -7.84,-2.28 -3.32,0 -5.96,0.8 -7.96,2.32 -2,1.56 -3,3.64 -3,6.24 0,0.8 0.08,1.52 0.28,2.2 0.2,0.68 0.44,1.24 0.68,1.72 0.24,0.48 0.6,0.92 1.16,1.36 0.56,0.4 1,0.76 1.4,1 0.36,0.24 0.96,0.48 1.76,0.8 0.8,0.28 1.4,0.48 1.76,0.6 0.4,0.12 1.04,0.32 2,0.6 0.12,0 0.24,0.04 0.36,0.08 0.16,0.04 0.24,0.08 0.32,0.12 0.08,0 0.2,0.04 0.36,0.08 2.8,0.8 4.6,1.4 5.48,1.88 0.88,0.44 1.28,1.16 1.28,2.16 0,1.16 -0.44,2.08 -1.4,2.76 -0.96,0.68 -2.24,1.04 -3.88,1.04 -4.16,0 -6.32,-1.8 -6.44,-5.36 h -6.2 c 0.04,3.2 1.16,5.72 3.32,7.48 2.16,1.76 5.2,2.68 9.04,2.68 1.52,0 2.96,-0.2 4.32,-0.52 1.36,-0.32 2.6,-0.84 3.72,-1.56 1.12,-0.72 2.04,-1.68 2.68,-2.88 0.68,-1.2 1,-2.64 1,-4.24 0,-2.24 -0.68,-3.96 -2.04,-5.16 -1.36,-1.2 -3.48,-2.2 -6.28,-3 -0.64,-0.2 -1.36,-0.4 -2.24,-0.6 -0.84,-0.24 -1.48,-0.4 -1.96,-0.52 -0.48,-0.16 -1,-0.32 -1.56,-0.48 -0.56,-0.16 -1,-0.32 -1.32,-0.48 -0.28,-0.16 -0.56,-0.32 -0.88,-0.56 -0.28,-0.24 -0.48,-0.48 -0.6,-0.72 -0.08,-0.28 -0.16,-0.6 -0.16,-0.92 0,-1.04 0.44,-1.84 1.24,-2.4 0.8,-0.56 1.92,-0.84 3.36,-0.84 3.36,0 5.16,1.4 5.4,4.24 z m 26.24002,-8.48 h -21.36 v 28.48 h 21.64 v -5.24 h -15.44 v -7 h 13.92 V 12 h -13.92 V 5.8 h 15.16 z m 18.72001,-0.04 h -6.44 l -10.84,28.52 h 6.4 l 2.32,-6.36 h 10.6 l 2.24,6.36 h 6.56 z m 0.52,17.6 h -7.56 l 3.8,-10.6 z m 12.96,-17.56 v 28.48 h 6.2 V 18 h 5.56 c 2,0 3.36,0.4 4.16,1.16 0.8,0.8 1.28,2.16 1.52,4.16 0,0.12 0.04,0.68 0.12,1.72 0.08,1.04 0.16,1.88 0.28,2.52 0.08,0.64 0.24,1.2 0.48,1.64 h 6.48 c -0.24,-0.2 -0.4,-0.48 -0.56,-0.88 -0.16,-0.4 -0.28,-0.92 -0.36,-1.48 -0.08,-0.6 -0.16,-1.12 -0.2,-1.52 -0.08,-0.4 -0.12,-0.96 -0.16,-1.64 -0.08,-0.72 -0.08,-1.12 -0.08,-1.24 -0.36,-3.92 -1.76,-6.16 -4.2,-6.64 1.4,-0.56 2.52,-1.44 3.32,-2.68 0.8,-1.24 1.2,-2.68 1.2,-4.32 0,-2.72 -0.92,-4.76 -2.68,-6.08 -1.8,-1.36 -4.12,-2 -6.92,-2 z m 6.2,4.96 h 6.2 c 1.6,0 2.84,0.24 3.8,0.8 0.96,0.52 1.44,1.52 1.44,3.04 0,1.6 -0.52,2.64 -1.48,3.2 -0.96,0.56 -2.32,0.84 -4.04,0.84 h -5.92 z m 47.88,12.52 h -6.2 c -0.56,4.28 -2.72,6.4 -6.52,6.4 -2.32,0 -4.12,-0.84 -5.48,-2.6 -1.36,-1.76 -2.04,-4.08 -2.04,-7.04 0,-1.68 0.24,-3.2 0.72,-4.64 0.48,-1.4 1.28,-2.6 2.48,-3.56 1.2,-0.96 2.64,-1.44 4.4,-1.44 1.68,0 3.04,0.4 4.16,1.28 1.12,0.88 1.84,2.08 2.16,3.68 h 6.12 c -0.24,-2.96 -1.52,-5.4 -3.8,-7.32 -2.32,-1.92 -5.16,-2.88 -8.52,-2.88 -4.24,0 -7.64,1.4 -10.2,4.24 -2.56,2.8 -3.8,6.36 -3.8,10.64 0,4.48 1.24,8.12 3.76,10.84 2.52,2.72 5.84,4.12 10,4.12 3.8,0 6.8,-1.08 9,-3.16 2.16,-2.12 3.44,-4.96 3.76,-8.56 z M 560.35991,0.68 h -6.24 V 11.4 h -11.64 V 0.68 h -6.24 v 28.48 h 6.24 V 16.88 h 11.64 v 12.28 h 6.24 z m 41.99995,13.08 h -11.96 v 4.64 h 6.36 c -0.08,1.92 -0.76,3.48 -2,4.68 -1.28,1.2 -2.88,1.76 -4.8,1.76 -2.48,0 -4.44,-0.84 -5.8,-2.56 -1.36,-1.72 -2.04,-4.12 -2.04,-7.24 0,-3.04 0.68,-5.4 2.04,-7.12 1.36,-1.72 3.2,-2.6 5.6,-2.6 1.64,0 3,0.44 4.08,1.24 1.12,0.84 1.8,2 2.08,3.48 h 6.04 c -0.36,-2.96 -1.68,-5.36 -3.92,-7.2 -2.24,-1.84 -4.96,-2.76 -8.24,-2.76 -4.08,0 -7.44,1.4 -10.08,4.2 -2.6,2.8 -3.92,6.36 -3.92,10.76 0,4.4 1.24,7.96 3.72,10.68 2.48,2.76 5.72,4.12 9.68,4.12 3.6,0 6.44,-1.28 8.56,-3.92 l 0.6,3.24 h 3.96 z M 607.5999,0.68 v 28.48 h 6.2 V 18 h 5.56 c 2,0 3.36,0.4 4.16,1.16 0.8,0.8 1.28,2.16 1.52,4.16 0,0.12 0.04,0.68 0.12,1.72 0.08,1.04 0.16,1.88 0.28,2.52 0.08,0.64 0.24,1.2 0.48,1.64 h 6.48 c -0.24,-0.2 -0.4,-0.48 -0.56,-0.88 -0.16,-0.4 -0.28,-0.92 -0.36,-1.48 -0.08,-0.6 -0.16,-1.12 -0.2,-1.52 -0.08,-0.4 -0.12,-0.96 -0.16,-1.64 -0.08,-0.72 -0.08,-1.12 -0.08,-1.24 -0.36,-3.92 -1.76,-6.16 -4.2,-6.64 1.4,-0.56 2.52,-1.44 3.32,-2.68 0.8,-1.24 1.2,-2.68 1.2,-4.32 0,-2.72 -0.92,-4.76 -2.68,-6.08 -1.8,-1.36 -4.12,-2 -6.92,-2 z m 6.2,4.96 h 6.2 c 1.6,0 2.84,0.24 3.8,0.8 0.96,0.52 1.44,1.52 1.44,3.04 0,1.6 -0.52,2.64 -1.48,3.2 -0.96,0.56 -2.32,0.84 -4.04,0.84 h -5.92 z M 649.11991,0 c -4.28,0 -7.72,1.4 -10.28,4.12 -2.56,2.72 -3.84,6.36 -3.84,10.84 0,4.48 1.28,8.08 3.88,10.8 2.56,2.72 5.96,4.08 10.2,4.08 4.16,0 7.56,-1.36 10.12,-4.08 2.56,-2.72 3.88,-6.32 3.88,-10.8 0,-4.44 -1.32,-8.04 -3.88,-10.8 -2.56,-2.76 -5.92,-4.16 -10.08,-4.16 z m -0.08,5.12 c 2.36,0 4.24,0.88 5.64,2.64 1.36,1.76 2.08,4.12 2.08,7.12 0,3.04 -0.68,5.44 -2.04,7.2 -1.36,1.76 -3.24,2.64 -5.6,2.64 -2.44,-0.04 -4.36,-0.92 -5.76,-2.64 -1.36,-1.76 -2.08,-4.16 -2.08,-7.2 0,-2.96 0.72,-5.32 2.12,-7.08 1.4,-1.76 3.28,-2.68 5.64,-2.68 z M 691.5999,0.68 h -6.24 v 17.04 c 0,2.32 -0.44,4.04 -1.24,5.16 -0.8,1.12 -2.32,1.68 -4.56,1.68 -2.32,0 -3.92,-0.56 -4.8,-1.68 -0.88,-1.12 -1.32,-2.84 -1.32,-5.16 V 0.68 h -6.24 v 17.04 c 0,4.08 0.96,7.12 2.96,9.08 2,1.96 5.08,2.92 9.32,2.92 4.16,0 7.2,-0.96 9.16,-2.88 1.96,-1.92 2.96,-4.96 2.96,-9.04 z m 5.43996,0 v 28.48 h 6.2 V 18.92 h 6.4 c 3,0 5.44,-0.76 7.32,-2.28 1.84,-1.52 2.8,-3.8 2.8,-6.8 0,-3.04 -0.96,-5.32 -2.84,-6.84 -1.88,-1.52 -4.4,-2.32 -7.6,-2.32 z m 6.2,5.12 h 5.6 c 3.2,0 4.84,1.4 4.84,4.12 0,2.72 -1.64,4.08 -4.88,4.08 h -5.56 z"
     id="text6"
     style="font-weight:bold;font-size:40px;font-family:'Helvetica Neue';-inkscape-font-specification:'Helvetica Neue Bold';fill:#ffffff"
     class="st4"
     aria-label="PUBLIC OPINION RESEARCH GROUP" /></svg>
