<?xml version="1.0" encoding="UTF-8" standalone="no"?>
<!DOCTYPE svg PUBLIC "-//W3C//DTD SVG 1.1//EN" "http://www.w3.org/Graphics/SVG/1.1/DTD/svg11.dtd">
<svg width="100%" height="100%" viewBox="0 0 2000 2000" version="1.1" xmlns="http://www.w3.org/2000/svg" xmlns:xlink="http://www.w3.org/1999/xlink" xml:space="preserve" xmlns:serif="http://www.serif.com/" style="fill-rule:evenodd;clip-rule:evenodd;stroke-linejoin:round;stroke-miterlimit:2;">
    <g transform="matrix(1.05882,0,0,1.05882,34.3529,34.3529)">
        <g transform="matrix(1.045,0,0,1.045,-89.4802,-30.8117)">
            <circle cx="527.73" cy="471.588" r="382.774" style="fill:rgb(19,41,75);"/>
        </g>
        <g transform="matrix(1.045,0,0,1.045,-89.4802,-30.8117)">
            <path d="M527.73,88.815L527.73,471.588L213.984,690.857C169.052,626.566 144.957,550.024 144.957,471.588C144.957,260.188 316.33,88.815 527.73,88.815Z" style="fill:rgb(75,156,211);"/>
        </g>
        <g transform="matrix(1.045,0,0,1.045,810.52,-30.8117)">
            <circle cx="527.73" cy="471.588" r="382.774" style="fill:rgb(19,41,75);"/>
        </g>
        <g transform="matrix(1.045,0,0,1.045,810.52,-30.8117)">
            <path d="M527.73,88.815L527.73,471.588L879.166,623.275C818.629,763.53 680.493,854.362 527.73,854.362C316.472,854.362 144.957,682.847 144.957,471.588C144.957,260.188 316.33,88.815 527.73,88.815Z" style="fill:rgb(75,156,211);"/>
        </g>
        <g transform="matrix(1.045,0,0,1.045,-89.4802,869.188)">
            <circle cx="527.73" cy="471.588" r="382.774" style="fill:rgb(19,41,75);"/>
        </g>
        <g transform="matrix(1.045,0,0,1.045,-89.4802,869.188)">
            <path d="M527.73,88.815L527.73,471.588L836.433,245.274C884.558,310.918 910.504,390.194 910.504,471.588C910.504,682.847 738.989,854.362 527.73,854.362C316.472,854.362 144.957,682.847 144.957,471.588C144.957,260.188 316.33,88.815 527.73,88.815Z" style="fill:rgb(75,156,211);"/>
        </g>
        <g transform="matrix(1.045,0,0,1.045,810.52,869.188)">
            <circle cx="527.73" cy="471.588" r="382.774" style="fill:rgb(19,41,75);"/>
        </g>
        <g transform="matrix(1.045,0,0,1.045,810.52,869.188)">
            <path d="M527.73,88.815L527.73,471.588L158.594,370.325C204.203,204.067 355.329,88.815 527.73,88.815Z" style="fill:rgb(75,156,211);"/>
        </g>
        <g>
            <g transform="matrix(0.944444,0,0,0.944444,-1.0156,-0.383898)">
                <g transform="matrix(900,0,0,900,766.552,804.583)">
                </g>
                <text x="213.952px" y="804.583px" style="font-family:'PTSans-Caption', 'PT Sans Caption', sans-serif;font-size:900px;fill:white;">P</text>
            </g>
            <g transform="matrix(0.944444,0,0,0.944444,898.984,-0.383898)">
                <g transform="matrix(900,0,0,900,826.402,804.583)">
                </g>
                <text x="154.102px" y="804.583px" style="font-family:'PTSans-Caption', 'PT Sans Caption', sans-serif;font-size:900px;fill:white;">O</text>
            </g>
            <g transform="matrix(0.944444,0,0,0.944444,857.984,893.616)">
                <g transform="matrix(900,0,0,900,790.852,804.583)">
                </g>
                <text x="189.652px" y="804.583px" style="font-family:'PTSans-Caption', 'PT Sans Caption', sans-serif;font-size:900px;fill:white;">G</text>
            </g>
            <g transform="matrix(0.944444,0,0,0.944444,-1.0156,899.616)">
                <g transform="matrix(900,0,0,900,784.102,804.583)">
                </g>
                <text x="196.402px" y="804.583px" style="font-family:'PTSans-Caption', 'PT Sans Caption', sans-serif;font-size:900px;fill:white;">R</text>
            </g>
        </g>
    </g>
</svg>
