<?xml version="1.0" encoding="UTF-8" standalone="no"?>
<svg
   width="3705.8701"
   height="847.05383"
   viewBox="0 0 3705.8701 847.05383"
   version="1.1"
   xml:space="preserve"
   style="clip-rule:evenodd;fill-rule:evenodd;stroke-linejoin:round;stroke-miterlimit:2"
   id="svg18"
   sodipodi:docname="logo_mobile.svg"
   inkscape:version="1.4.3 (0d15f75042, 2025-12-25)"
   xmlns:inkscape="http://www.inkscape.org/namespaces/inkscape"
   xmlns:sodipodi="http://sodipodi.sourceforge.net/DTD/sodipodi-0.dtd"
   xmlns="http://www.w3.org/2000/svg"
   xmlns:svg="http://www.w3.org/2000/svg"><defs
   id="defs18" /><sodipodi:namedview
   id="namedview18"
   pagecolor="#ffffff"
   bordercolor="#111111"
   borderopacity="1"
   inkscape:showpageshadow="0"
   inkscape:pageopacity="0"
   inkscape:pagecheckerboard="1"
   inkscape:deskcolor="#d1d1d1"
   inkscape:zoom="0.15202796"
   inkscape:cx="907.72778"
   inkscape:cy="838.66153"
   inkscape:window-width="1516"
   inkscape:window-height="806"
   inkscape:window-x="0"
   inkscape:window-y="0"
   inkscape:window-maximized="1"
   inkscape:current-layer="g18" />
    <g
   transform="matrix(1.05882,0,0,1.05882,-65.645584,-65.645736)"
   id="g18">
        
        <g
   id="g22"><g
     transform="matrix(1.045,0,0,1.045,-89.4802,-30.8117)"
     id="g1">
            <circle
   cx="527.72998"
   cy="471.58801"
   r="382.77399"
   style="fill:#13294b"
   id="circle1" />
        </g><g
     transform="matrix(1.045,0,0,1.045,-89.4802,-30.8117)"
     id="g2">
            <path
   d="M 527.73,88.815 V 471.588 L 213.984,690.857 C 169.052,626.566 144.957,550.024 144.957,471.588 144.957,260.188 316.33,88.815 527.73,88.815 Z"
   style="fill:#4b9cd3"
   id="path1" />
        </g><g
     transform="matrix(0.944444,0,0,0.944444,-1.0156004,-0.38389811)"
     id="g10"
     style="clip-rule:evenodd;fill-rule:evenodd;stroke-linejoin:round;stroke-miterlimit:2">
                <g
   transform="matrix(900,0,0,900,766.552,804.583)"
   id="g9">
                </g>
                <text
   x="213.952"
   y="804.58301"
   style="font-size:900px;font-family:PTSans-Caption, 'PT Sans Caption', sans-serif;fill:#ffffff"
   id="text9">P</text>
            </g></g>
        
        <g
   id="g21"><g
     transform="matrix(1.045,0,0,1.045,810.52,-30.8117)"
     id="g3">
            <circle
   cx="527.72998"
   cy="471.58801"
   r="382.77399"
   style="fill:#13294b"
   id="circle2" />
        </g><g
     transform="matrix(1.045,0,0,1.045,810.52,-30.8117)"
     id="g4">
            <path
   d="M 527.73,88.815 V 471.588 L 879.166,623.275 C 818.629,763.53 680.493,854.362 527.73,854.362 c -211.258,0 -382.773,-171.515 -382.773,-382.774 0,-211.4 171.373,-382.773 382.773,-382.773 z"
   style="fill:#4b9cd3"
   id="path3" />
        </g><g
     transform="matrix(0.944444,0,0,0.944444,898.984,-0.38389811)"
     id="g12"
     style="clip-rule:evenodd;fill-rule:evenodd;stroke-linejoin:round;stroke-miterlimit:2">
                <g
   transform="matrix(900,0,0,900,826.402,804.583)"
   id="g11">
                </g>
                <text
   x="154.10201"
   y="804.58301"
   style="font-size:900px;font-family:PTSans-Caption, 'PT Sans Caption', sans-serif;fill:#ffffff"
   id="text11">O</text>
            </g></g>
        
        <g
   id="g20"
   transform="translate(1800.0014,-899.99936)"><g
     transform="matrix(1.045,0,0,1.045,-89.4802,869.188)"
     id="g5">
            <circle
   cx="527.72998"
   cy="471.58801"
   r="382.77399"
   style="fill:#13294b"
   id="circle4" />
        </g><g
     transform="matrix(1.045,0,0,1.045,-89.4802,869.188)"
     id="g6"
     inkscape:label="g6">
            <path
   d="M 527.73,88.815 V 471.588 L 836.433,245.274 c 48.125,65.644 74.071,144.92 74.071,226.314 0,211.259 -171.515,382.774 -382.774,382.774 -211.258,0 -382.773,-171.515 -382.773,-382.774 0,-211.4 171.373,-382.773 382.773,-382.773 z"
   style="fill:#4b9cd3"
   id="path5" />
        </g><g
     transform="matrix(0.944444,0,0,0.944444,-1.0156004,899.616)"
     id="g16"
     style="clip-rule:evenodd;fill-rule:evenodd;stroke-linejoin:round;stroke-miterlimit:2">
                <g
   transform="matrix(900,0,0,900,784.102,804.583)"
   id="g15">
                </g>
                <text
   x="196.40199"
   y="804.58301"
   style="font-size:900px;font-family:PTSans-Caption, 'PT Sans Caption', sans-serif;fill:#ffffff"
   id="text15">R</text>
            </g></g>
        
        <g
   id="g19"
   transform="translate(1800.0022,-899.99936)"><g
     transform="matrix(1.045,0,0,1.045,810.52,869.188)"
     id="g7">
            <circle
   cx="527.72998"
   cy="471.58801"
   r="382.77399"
   style="fill:#13294b"
   id="circle6" />
        </g><g
     transform="matrix(1.045,0,0,1.045,810.52,869.188)"
     id="g8">
            <path
   d="M 527.73,88.815 V 471.588 L 158.594,370.325 C 204.203,204.067 355.329,88.815 527.73,88.815 Z"
   style="fill:#4b9cd3"
   id="path7" />
        </g><g
     transform="matrix(0.944444,0,0,0.944444,857.984,893.616)"
     id="g14"
     style="clip-rule:evenodd;fill-rule:evenodd;stroke-linejoin:round;stroke-miterlimit:2">
                <g
   transform="matrix(900,0,0,900,790.852,804.583)"
   id="g13">
                </g>
                <text
   x="189.65199"
   y="804.58301"
   style="font-size:900px;font-family:PTSans-Caption, 'PT Sans Caption', sans-serif;fill:#ffffff"
   id="text13">G</text>
            </g></g>
        
    </g>
</svg>
